<?xml version="1.0" standalone="no"?>
<!DOCTYPE svg PUBLIC "-//W3C//DTD SVG 20010904//EN"
 "http://www.w3.org/TR/2001/REC-SVG-20010904/DTD/svg10.dtd">
<svg version="1.0" xmlns="http://www.w3.org/2000/svg"
 width="70.000000pt" height="70.000000pt" viewBox="0 0 70.000000 70.000000"
 preserveAspectRatio="xMidYMid meet">
<metadata>
Created by potrace 1.11, written by Peter Selinger 2001-2013
</metadata>
<g transform="translate(0.000000,70.000000) scale(0.100000,-0.100000)"
fill="#000000" stroke="none">
<path d="M0 350 l0 -350 350 0 350 0 0 350 0 350 -350 0 -350 0 0 -350z m470
60 l0 -30 58 26 c31 14 63 28 70 31 7 3 12 -3 12 -15 0 -14 -16 -26 -62 -47
l-63 -27 63 -28 c37 -18 62 -35 62 -44 0 -21 -8 -20 -74 9 -31 14 -59 25 -61
25 -3 0 -5 -11 -5 -25 0 -16 -6 -25 -15 -25 -12 0 -15 17 -15 90 0 73 3 90 15
90 10 0 15 -10 15 -30z m-240 -65 c0 -69 -3 -85 -15 -85 -10 0 -15 11 -15 35
0 31 -3 35 -25 35 -22 0 -25 -4 -25 -35 0 -24 -5 -35 -15 -35 -12 0 -15 16
-15 85 l0 85 55 0 55 0 0 -85z m170 15 c0 -56 3 -70 15 -70 8 0 15 -7 15 -15
0 -12 -17 -15 -95 -15 -78 0 -95 3 -95 15 0 8 9 15 20 15 18 0 20 7 20 70 l0
70 60 0 60 0 0 -70z"/>
<path d="M150 380 c0 -15 7 -20 25 -20 18 0 25 5 25 20 0 15 -7 20 -25 20 -18
0 -25 -5 -25 -20z"/>
<path d="M310 345 c0 -54 0 -55 30 -55 30 0 30 1 30 55 0 54 0 55 -30 55 -30
0 -30 -1 -30 -55z"/>
</g>
</svg>
