<svg>
	<symbol id="icon-inst" viewBox="0 0 512 512" xmlns="http://www.w3.org/2000/svg">
		<path d="m437 0h-362c-41.351562 0-75 33.648438-75 75v362c0 41.351562 33.648438 75 75 75h362c41.351562 0 75-33.648438 75-75v-362c0-41.351562-33.648438-75-75-75zm-180 390c-74.441406 0-135-60.558594-135-135s60.558594-135 135-135 135 60.558594 135 135-60.558594 135-135 135zm150-240c-24.8125 0-45-20.1875-45-45s20.1875-45 45-45 45 20.1875 45 45-20.1875 45-45 45zm0 0"/><path d="m407 90c-8.277344 0-15 6.722656-15 15s6.722656 15 15 15 15-6.722656 15-15-6.722656-15-15-15zm0 0"/><path d="m257 150c-57.890625 0-105 47.109375-105 105s47.109375 105 105 105 105-47.109375 105-105-47.109375-105-105-105zm0 0"/>
	</symbol>

	<symbol id="icon-behance" viewBox="0 0 24 24" xmlns="http://www.w3.org/2000/svg">
		<path d="m12.363 14.947c0-1.848-.879-3.214-2.695-3.726 1.325-.631 2.016-1.587 2.016-3.074 0-2.932-2.192-3.647-4.721-3.647h-6.963v14.721h7.158c2.684 0 5.205-1.283 5.205-4.274zm-9.117-7.934h3.046c1.171 0 2.225.328 2.225 1.682 0 1.25-.82 1.753-1.98 1.753h-3.291zm-.001 9.708v-4.054h3.538c1.429 0 2.333.594 2.333 2.102 0 1.487-1.079 1.952-2.4 1.952z"/><path d="m18.796 19.5c2.554 0 4.208-1.147 5.004-3.585h-2.592c-.279.91-1.429 1.391-2.321 1.391-1.721 0-2.625-1.005-2.625-2.713h7.713c.244-3.418-1.66-6.331-5.18-6.331-3.259 0-5.471 2.442-5.471 5.641 0 3.32 2.096 5.597 5.472 5.597zm-.092-9.026c1.475 0 2.217.864 2.341 2.277h-4.779c.097-1.401 1.03-2.277 2.438-2.277z"/><path d="m15.667 5.273h5.988v1.45h-5.988z"/>
	</symbol>

	<symbol id="icon-mail" viewBox="0 0 512 512" xmlns="http://www.w3.org/2000/svg">
		<path d="M10.688,95.156C80.958,154.667,204.26,259.365,240.5,292.01c4.865,4.406,10.083,6.646,15.5,6.646
			c5.406,0,10.615-2.219,15.469-6.604c36.271-32.677,159.573-137.385,229.844-196.896c4.375-3.698,5.042-10.198,1.5-14.719
			C494.625,69.99,482.417,64,469.333,64H42.667c-13.083,0-25.292,5.99-33.479,16.438C5.646,84.958,6.313,91.458,10.688,95.156z"/>
		<path d="M505.813,127.406c-3.781-1.76-8.229-1.146-11.375,1.542C416.51,195.01,317.052,279.688,285.76,307.885
			c-17.563,15.854-41.938,15.854-59.542-0.021c-33.354-30.052-145.042-125-208.656-178.917c-3.167-2.688-7.625-3.281-11.375-1.542
			C2.417,129.156,0,132.927,0,137.083v268.25C0,428.865,19.135,448,42.667,448h426.667C492.865,448,512,428.865,512,405.333
			v-268.25C512,132.927,509.583,129.146,505.813,127.406z"/>
	</symbol>

	<symbol id="icon-phone" viewBox="0 0 513.64 513.64" xmlns="http://www.w3.org/2000/svg">
		<path d="M499.66,376.96l-71.68-71.68c-25.6-25.6-69.12-15.359-79.36,17.92c-7.68,23.041-33.28,35.841-56.32,30.72
			c-51.2-12.8-120.32-79.36-133.12-133.12c-7.68-23.041,7.68-48.641,30.72-56.32c33.28-10.24,43.52-53.76,17.92-79.36l-71.68-71.68
			c-20.48-17.92-51.2-17.92-69.12,0l-48.64,48.64c-48.64,51.2,5.12,186.88,125.44,307.2c120.32,120.32,256,176.641,307.2,125.44
			l48.64-48.64C517.581,425.6,517.581,394.88,499.66,376.96z"/>
	</symbol>
</svg>